<?xml version="1.0" standalone="no"?><!DOCTYPE svg PUBLIC "-//W3C//DTD SVG 1.1//EN" "http://www.w3.org/Graphics/SVG/1.1/DTD/svg11.dtd"><svg t="1646703726200" class="icon" viewBox="0 0 8260 1024" version="1.1" xmlns="http://www.w3.org/2000/svg" p-id="2759" xmlns:xlink="http://www.w3.org/1999/xlink" width="1613.28125" height="200"><defs><style type="text/css"></style></defs><path d="M54.613333 122.88h88.746667l170.666667 600.746667 238.933333-600.746667h20.48l238.933333 600.746667 170.666667-600.746667h81.92L819.2 955.733333h-13.653333l-245.76-628.053333-252.586667 628.053333h-13.653333l-238.933334-832.853333zM1611.093333 102.4c122.88 0 232.106667 40.96 314.026667 129.706667 81.92 81.92 129.706667 191.146667 129.706667 314.026666 0 122.88-40.96 225.28-129.706667 307.2s-191.146667 129.706667-307.2 129.706667c-122.88 0-225.28-40.96-314.026667-129.706667-81.92-81.92-129.706667-184.32-129.706666-307.2 0-81.92 20.48-157.013333 61.44-225.28 40.96-68.266667 88.746667-122.88 157.013333-163.84s143.36-54.613333 218.453333-54.613333z m6.826667 81.92c-61.44 0-122.88 13.653333-177.493333 47.786667-54.613333 34.133333-95.573333 75.093333-129.706667 129.706666-34.133333 54.613333-47.786667 116.053333-47.786667 184.32 0 102.4 34.133333 184.32 102.4 252.586667s150.186667 102.4 245.76 102.4c61.44 0 122.88-13.653333 177.493334-47.786667s95.573333-75.093333 129.706666-129.706666 47.786667-116.053333 47.786667-184.32c0-68.266667-13.653333-122.88-47.786667-177.493334-34.133333-54.613333-75.093333-95.573333-129.706666-129.706666s-109.226667-47.786667-170.666667-47.786667zM2225.493333 955.733333v-832.853333h20.48l552.96 641.706667v-641.706667h81.92V955.733333h-20.48l-552.96-628.053333v628.053333h-81.92zM3085.653333 955.733333v-832.853333h170.666667c122.88 0 218.453333 6.826667 273.066667 27.306667 81.92 27.306667 143.36 75.093333 191.146666 150.186666 47.786667 68.266667 68.266667 150.186667 68.266667 252.586667 0 81.92-20.48 157.013333-54.613333 218.453333-34.133333 61.44-81.92 109.226667-143.36 143.36-54.613333 27.306667-136.533333 47.786667-238.933334 47.786667h-266.24z m75.093334-81.92h95.573333c116.053333 0 197.973333-6.826667 238.933333-20.48 61.44-20.48 109.226667-54.613333 150.186667-109.226666s54.613333-116.053333 54.613333-191.146667c0-81.92-20.48-150.186667-61.44-204.8s-95.573333-95.573333-163.84-116.053333c-54.613333-13.653333-136.533333-20.48-259.413333-20.48h-61.44v662.186666zM3945.813333 122.88h477.866667v81.92h-395.946667v259.413333h389.12v81.92h-389.12v327.68h389.12v81.92h-471.04v-832.853333zM4573.866667 122.88h163.84c95.573333 0 157.013333 6.826667 191.146666 13.653333 47.786667 13.653333 88.746667 34.133333 122.88 75.093334s47.786667 81.92 47.786667 136.533333c0 47.786667-13.653333 81.92-34.133333 122.88-20.48 34.133333-54.613333 61.44-88.746667 75.093333s-95.573333 27.306667-163.84 27.306667l300.373333 389.12h-102.4l-300.373333-389.12h-47.786667v389.12h-81.92v-839.68z m81.92 81.92v286.72h143.36c54.613333 0 95.573333-6.826667 122.88-13.653333 27.306667-13.653333 47.786667-27.306667 61.44-47.786667 13.653333-20.48 20.48-47.786667 20.48-75.093333 0-27.306667-6.826667-54.613333-20.48-75.093334-13.653333-20.48-34.133333-40.96-61.44-47.786666-27.306667-6.826667-68.266667-13.653333-122.88-13.653334h-143.36zM5270.186667 122.88h81.92v750.933333h320.853333v81.92h-402.773333v-832.853333zM6150.826667 122.88l389.12 832.853333h-88.746667l-129.706667-273.066666h-361.813333l-129.706667 273.066666h-95.573333l395.946667-832.853333h20.48z m-13.653334 177.493333l-143.36 300.373334h286.72l-143.36-300.373334zM6669.653333 955.733333v-832.853333h20.48l552.96 641.706667v-641.706667h81.92V955.733333h-20.48l-552.96-628.053333v628.053333h-81.92zM7522.986667 955.733333v-832.853333h170.666666c122.88 0 218.453333 6.826667 273.066667 27.306667 81.92 27.306667 143.36 75.093333 191.146667 150.186666 47.786667 68.266667 68.266667 150.186667 68.266666 252.586667 0 81.92-20.48 157.013333-54.613333 218.453333-34.133333 61.44-81.92 109.226667-143.36 143.36s-136.533333 47.786667-238.933333 47.786667h-266.24z m81.92-81.92h95.573333c116.053333 0 197.973333-6.826667 238.933333-20.48 61.44-20.48 109.226667-54.613333 150.186667-109.226666s54.613333-116.053333 54.613333-191.146667c0-81.92-20.48-150.186667-61.44-204.8s-95.573333-95.573333-163.84-116.053333c-54.613333-13.653333-136.533333-20.48-259.413333-20.48h-61.44v662.186666z" p-id="2760" fill="#707070"></path></svg>